<svg width="1512" height="148" viewBox="0 0 1512 148" fill="none" xmlns="http://www.w3.org/2000/svg">
<path d="M0 2.8L42 14.9C84 27 168 51.2 252 67.3081C336 83.7188 420 91.2813 504 83.4919C588 75.4 672 51.2 756 31.0081C840 11.1188 924 -5.51875 1008 2.8C1092 11.1188 1176 42.8813 1260 59.2919C1344 75.4 1428 75.4 1470 75.4H1512V148H1470C1428 148 1344 148 1260 148C1176 148 1092 148 1008 148C924 148 840 148 756 148C672 148 588 148 504 148C420 148 336 148 252 148C168 148 84 148 42 148H0V2.8Z" fill="#F65578"/>
</svg>
