<svg width="1512" height="171" viewBox="0 0 1512 171" fill="none" xmlns="http://www.w3.org/2000/svg">
<path d="M1512 170.5L1470 164.184C1428 158.104 1344 145.118 1260 142.167C1176 139.215 1092 145.118 1008 135.851C924 126.229 840 101.438 756 98.0729C672 94.9444 588 113.833 504 113.833C420 113.833 336 94.9444 252 101.26C168 107.34 84.0001 139.215 42.0001 154.74L6.86646e-05 170.5V0.499996L42.0001 0.499996C84.0001 0.499996 168 0.499996 252 0.499996C336 0.499996 420 0.499996 504 0.499996C588 0.499996 672 0.499996 756 0.499996C840 0.499996 924 0.499996 1008 0.499996C1092 0.499996 1176 0.499996 1260 0.499996C1344 0.499996 1428 0.499996 1470 0.499996H1512V170.5Z" fill="#F65578"/>
</svg>
